<svg width="30" height="30" viewBox="0 0 30 30" fill="none" xmlns="http://www.w3.org/2000/svg">
<g clip-path="url(#clip0_379_443)">
<path d="M14.9707 12.9356C16.9005 12.9356 18.4678 11.3683 18.4678 9.43848C18.4678 7.50866 16.9005 5.94141 14.9707 5.94141C13.0409 5.94141 11.4736 7.50866 11.4736 9.43848C11.4736 11.3683 13.0409 12.9356 14.9707 12.9356ZM14.9707 7.40339C16.0935 7.40339 17.0058 8.31568 17.0058 9.43848C17.0058 10.5613 16.0935 11.4736 14.9707 11.4736C13.8479 11.4736 12.9356 10.5613 12.9356 9.43848C12.9415 8.31568 13.8479 7.40339 14.9707 7.40339Z" fill="#00539B"/>
<path d="M21.5906 17.4269C23.3099 14.6433 24.6842 11.7778 24.6842 9.7193C24.6901 4.35673 20.3275 0 14.9708 0C9.61404 0 5.25731 4.35673 5.25731 9.71345C5.25731 11.7719 6.63158 14.6374 8.35088 17.4211C3.731 18.5497 0.906433 20.7544 0.906433 23.3041C0.906433 25.1871 2.45029 26.9064 5.24562 28.1462C7.8538 29.3041 11.3099 29.9415 14.9708 29.9415C18.6316 29.9415 22.0877 29.3041 24.6959 28.1521C27.4971 26.9123 29.0351 25.193 29.0351 23.3099C29.0351 20.7602 26.2105 18.5497 21.5906 17.4269ZM14.9708 1.46784C19.5205 1.46784 23.2222 5.16959 23.2222 9.7193C23.2222 10.7427 22.7427 12.7427 20.4737 16.4503C18.924 18.9883 17.0643 21.4561 15.7778 23.0877C15.4269 23.5322 14.7836 23.6082 14.3392 23.2573C14.2749 23.2105 14.2222 23.1521 14.1696 23.0877C12.883 21.462 11.0234 18.9883 9.47369 16.4503C7.19883 12.7368 6.72515 10.7427 6.72515 9.7193C6.7193 5.16374 10.4211 1.46784 14.9708 1.46784ZM24.0994 26.807C21.6725 27.883 18.4269 28.4737 14.9708 28.4737C11.5146 28.4737 8.26901 27.883 5.84211 26.807C3.63743 25.8304 2.37427 24.5556 2.37427 23.3041C2.37427 21.4444 5.09357 19.6374 9.19298 18.731C10.5029 20.7135 11.9064 22.579 13.0234 23.9883C13.8772 25.0702 15.4386 25.2515 16.5205 24.3977C16.6725 24.2749 16.8129 24.1404 16.9298 23.9883C18.0468 22.579 19.4503 20.7076 20.7602 18.731C24.8597 19.6374 27.579 21.4444 27.579 23.3041C27.5731 24.5556 26.3041 25.8363 24.0994 26.807Z" fill="#00539B"/>
</g>
<defs>
<clipPath id="clip0_379_443">
<rect width="29.9415" height="29.9415" fill="white"/>
</clipPath>
</defs>
</svg>
