<svg width="28" height="28" viewBox="0 0 28 28" fill="none" xmlns="http://www.w3.org/2000/svg">
<g clip-path="url(#clip0_379_437)">
<path d="M21.898 17.1639C21.3308 16.5733 20.6465 16.2575 19.9214 16.2575C19.2021 16.2575 18.512 16.5675 17.9214 17.1581L16.0734 19.0002C15.9214 18.9183 15.7694 18.8423 15.6232 18.7663C15.4126 18.661 15.2138 18.5616 15.0442 18.4563C13.3132 17.3569 11.7401 15.9242 10.2313 14.0704C9.50035 13.1464 9.00912 12.3686 8.65239 11.5791C9.13193 11.1406 9.57637 10.6844 10.0091 10.2458C10.1729 10.0821 10.3366 9.91248 10.5003 9.74874C11.7284 8.52067 11.7284 6.93003 10.5003 5.70195L8.90386 4.10546C8.72257 3.92418 8.53543 3.73704 8.36 3.54991C8.00912 3.18733 7.6407 2.81307 7.26058 2.46219C6.69333 1.90078 6.01497 1.60254 5.30152 1.60254C4.58807 1.60254 3.89801 1.90078 3.31321 2.46219C3.30736 2.46804 3.30736 2.46804 3.30152 2.47388L1.31321 4.47973C0.564673 5.22827 0.137772 6.14055 0.0442051 7.19903C-0.0961458 8.90663 0.406778 10.4973 0.792743 11.5382C1.74011 14.0938 3.15532 16.4622 5.26643 19.0002C7.82783 22.0587 10.9097 24.4739 14.4302 26.1756C15.7752 26.8131 17.5705 27.5675 19.5764 27.6961C19.6992 27.702 19.8278 27.7078 19.9448 27.7078C21.2957 27.7078 22.4302 27.2224 23.3191 26.2575C23.3249 26.2458 23.3366 26.24 23.3425 26.2283C23.6465 25.8599 23.9974 25.5265 24.3658 25.1698C24.6173 24.93 24.8746 24.6786 25.1261 24.4154C25.705 23.8131 26.0091 23.1113 26.0091 22.392C26.0091 21.6669 25.6992 20.971 25.1085 20.3862L21.898 17.1639ZM23.9916 23.3218C23.9857 23.3218 23.9857 23.3277 23.9916 23.3218C23.7635 23.5675 23.5296 23.7897 23.2781 24.0353C22.898 24.3979 22.512 24.778 22.1495 25.2049C21.5588 25.8365 20.8629 26.1347 19.9506 26.1347C19.8629 26.1347 19.7694 26.1347 19.6816 26.1289C17.9448 26.0177 16.3308 25.3394 15.1202 24.7604C11.8103 23.1581 8.90386 20.8832 6.48865 18.0002C4.4945 15.5967 3.16116 13.3745 2.27812 10.9885C1.73426 9.53236 1.53543 8.39786 1.62315 7.32769C1.68163 6.64348 1.94479 6.07622 2.43017 5.59084L4.42432 3.59669C4.71087 3.32769 5.01497 3.18149 5.31321 3.18149C5.68163 3.18149 5.97988 3.40371 6.16701 3.59084C6.17286 3.59669 6.17871 3.60254 6.18456 3.60839C6.54128 3.94172 6.88046 4.28675 7.23719 4.65517C7.41848 4.84231 7.60561 5.02944 7.79274 5.22242L9.38924 6.81891C10.0091 7.4388 10.0091 8.0119 9.38924 8.63178C9.21964 8.80137 9.0559 8.97096 8.88631 9.1347C8.39508 9.63763 7.92725 10.1055 7.41848 10.5616C7.40678 10.5733 7.39508 10.5791 7.38924 10.5908C6.88631 11.0938 6.97988 11.585 7.08514 11.9183C7.09099 11.9359 7.09684 11.9534 7.10269 11.971C7.51789 12.9768 8.10269 13.9242 8.99157 15.0528L8.99742 15.0587C10.6115 17.047 12.3132 18.5967 14.1904 19.7838C14.4302 19.9359 14.6758 20.0587 14.9097 20.1756C15.1202 20.2809 15.3191 20.3803 15.4887 20.4856C15.512 20.4973 15.5354 20.5148 15.5588 20.5265C15.7577 20.6259 15.9448 20.6727 16.1378 20.6727C16.6232 20.6727 16.9272 20.3686 17.0267 20.2692L19.0267 18.2692C19.2255 18.0704 19.5413 17.8306 19.9097 17.8306C20.2723 17.8306 20.5705 18.0587 20.7518 18.2575C20.7577 18.2634 20.7577 18.2634 20.7635 18.2692L23.9857 21.4914C24.5881 22.0879 24.5881 22.702 23.9916 23.3218Z" fill="#00539B"/>
<path d="M14.9741 6.59127C16.5062 6.84858 17.898 7.57373 19.0091 8.68484C20.1203 9.79595 20.8396 11.1878 21.1027 12.7199C21.167 13.1059 21.5004 13.3749 21.8805 13.3749C21.9273 13.3749 21.9682 13.3691 22.015 13.3632C22.4477 13.293 22.7343 12.8837 22.6641 12.4509C22.3483 10.5971 21.4711 8.90706 20.132 7.56788C18.7928 6.2287 17.1027 5.35151 15.2489 5.03572C14.8162 4.96554 14.4127 5.25209 14.3366 5.67899C14.2606 6.10589 14.5413 6.5211 14.9741 6.59127Z" fill="#00539B"/>
<path d="M27.6758 12.2221C27.1553 9.16944 25.7167 6.39167 23.5062 4.18114C21.2957 1.97061 18.5179 0.532016 15.4653 0.0115477C15.0384 -0.0644757 14.6349 0.227922 14.5588 0.654823C14.4887 1.08757 14.7752 1.49108 15.208 1.5671C17.9331 2.02909 20.4185 3.32149 22.3951 5.29225C24.3717 7.26886 25.6583 9.75424 26.1202 12.4794C26.1846 12.8654 26.5179 13.1344 26.898 13.1344C26.9448 13.1344 26.9857 13.1285 27.0325 13.1227C27.4594 13.0583 27.7518 12.649 27.6758 12.2221Z" fill="#00539B"/>
</g>
<defs>
<clipPath id="clip0_379_437">
<rect width="27.708" height="27.708" fill="white"/>
</clipPath>
</defs>
</svg>
