<?xml version="1.0" encoding="UTF-8"?>
<svg id="Layer_1" data-name="Layer 1" xmlns="http://www.w3.org/2000/svg" version="1.1" viewBox="0 0 1200 803.6">
  <defs>
    <style>
      .cls-1 {
        fill: #0033a1;
        stroke-width: 0px;
      }
    </style>
  </defs>
  <g>
    <path class="cls-1" d="M290.7,677.7h11.4l26.9,66.6h-16l-3.6-9.2h-26l-3.6,9.2h-16l26.8-66.6ZM304.1,721.3l-7.8-19.7-7.6,19.7h15.4Z"/>
    <path class="cls-1" d="M335.7,697.1h14.5v3.9c3.6-3.5,8.3-4.6,12.5-4.6,8.2,0,18.3,4.3,18.3,19.1v28.8h-14.6v-26.4c0-8-5.6-9.1-8.2-9.1s-8,1.1-8,9.1v26.4h-14.5v-47.1Z"/>
    <path class="cls-1" d="M389.8,720.7c0-14.3,9.4-24.3,22.1-24.3s9.2,1.7,12.2,4.6v-3.9h14.5v47.1h-14.5v-3.9c-3,3-7,4.7-12.2,4.7-12.7,0-22.1-10.3-22.1-24.4ZM424.2,720.7c0-6.1-3.9-10.6-10-10.6s-10.1,4.4-10.1,10.6,4,10.7,10.1,10.7,10-4.5,10-10.7Z"/>
    <path class="cls-1" d="M447.6,720.7c0-14.3,9.4-24.3,22.1-24.3s9.2,1.7,12.2,4.6v-23.4h14.5v66.6h-14.5v-3.9c-3,3-7,4.7-12.2,4.7-12.7,0-22.1-10.3-22.1-24.4ZM481.9,720.7c0-6.1-3.9-10.6-10-10.6s-10.1,4.4-10.1,10.6,4,10.7,10.1,10.7,10-4.5,10-10.7Z"/>
    <path class="cls-1" d="M505.4,720.7c0-14.3,10.1-24.6,24.5-24.6s24.4,10.2,24.4,24.6-10.1,24.6-24.4,24.6-24.5-10.6-24.5-24.6ZM539.8,720.7c0-6-3.9-10.6-9.9-10.6s-10.1,4.5-10.1,10.6,4,10.7,10.1,10.7,9.9-4.6,9.9-10.7Z"/>
    <path class="cls-1" d="M563.1,677.7h14.6v66.6h-14.6v-66.6Z"/>
    <path class="cls-1" d="M588.5,725.9v-28.8h14.5v26.5c0,8,5.7,9.1,8.2,9.1s8-1.1,8-9.1v-26.5h14.6v47.1h-14.6v-3.8c-3.6,3.5-8.3,4.6-12.5,4.6-8.2,0-18.2-4.3-18.2-19.2Z"/>
    <path class="cls-1" d="M688.9,677.7h11.4l26.9,66.6h-16l-3.6-9.2h-26l-3.6,9.2h-16l26.8-66.6ZM702.3,721.3l-7.8-19.7-7.6,19.7h15.4Z"/>
    <path class="cls-1" d="M727.3,751.8h2c3.1,0,6.1.1,6.1-5.7v-49h14.6v52.1c0,7.5-4.2,13.8-15.5,13.8h-7.4v-11.3ZM734.8,683.2c0-4.9,4.1-7.6,7.9-7.6s7.9,2.7,7.9,7.6-4,8-7.8,8-8-3-8-8Z"/>
    <path class="cls-1" d="M759.3,720.7c0-14.3,9.4-24.3,22.1-24.3s9.2,1.7,12.2,4.6v-3.9h14.5v47.1h-14.5v-3.9c-3,3-7,4.7-12.2,4.7-12.7,0-22.1-10.3-22.1-24.4ZM793.7,720.7c0-6.1-3.9-10.6-10-10.6s-10.1,4.4-10.1,10.6,4,10.7,10.1,10.7,10-4.5,10-10.7Z"/>
    <path class="cls-1" d="M819.1,697.1h14.5v3.9c3.6-3.5,8.3-4.6,12.5-4.6,8.2,0,18.3,4.3,18.3,19.1v28.8h-14.6v-26.4c0-8-5.6-9.1-8.2-9.1s-8,1.1-8,9.1v26.4h-14.5v-47.1Z"/>
    <path class="cls-1" d="M872.2,734.2l9.9-6.8c.8,2.2,6.5,6.8,11.8,6.8s5.4-1,5.4-3.3-5.3-3.9-8.7-5.1c-3.4-1.2-16.2-4.5-16.2-15.1s9.2-14.8,19.3-14.8,17.4,5.1,20,10.1l-9.4,6.2c-1.4-2-6.6-5.2-11.1-5.2s-4.6,1.2-4.6,2.9c0,3.2,5.2,4.1,8.6,5.3,3.5,1.2,16.3,4.8,16.3,15.1s-7.6,15.3-19.7,15.3-19.3-5.9-21.6-11.5Z"/>
    <path class="cls-1" d="M921.5,697.1h14.6v47.1h-14.6v-47.1Z"/>
  </g>
  <g>
    <path class="cls-1" d="M379.9,391.1c-3.6-16.1-5.5-32.9-5.5-50.1.2-122.7,99.8-223.6,222.5-225.3,126-1.7,228.7,100,228.7,225.6s-1.9,33.7-5.5,49.7c-.2.8-.1,1.6.2,2.3l32.5,78.1c1.3,3.1,5.6,3.2,7.1.3,20-39.8,31.1-84.8,30.8-132.5-1.1-158.3-130.4-287.4-288.7-288.5-161.5-1.1-292.7,129.5-292.7,290.7s11.2,91.6,31.1,130.9c1.4,2.7,5.3,2.6,6.5-.2l32.8-78.8c.3-.7.3-1.4.2-2.1Z"/>
    <g>
      <path class="cls-1" d="M719,222.6c-.6-1.4-2-2.4-3.6-2.4h-97c-2.1,0-3.9,1.7-3.9,3.9v404.1c0,2.1,1.7,3.9,3.9,3.9h57.3c2.1,0,3.9-1.7,3.9-3.9v-96.7c0-2.1,1.7-3.9,3.9-3.9h96c1.6,0,3,.9,3.6,2.4,8.8,21.2,32.4,77.8,41.5,99.7.6,1.4,2,2.4,3.6,2.4h56.7c2.8,0,4.7-2.8,3.6-5.4-53-126.3-116.6-278-169.5-404.1ZM749.1,462.4h-65.6c-2.1,0-3.9-1.7-3.9-3.9v-157.3c0-2.1,1.7-3.9,3.9-3.9h0c1.6,0,3,.9,3.6,2.4l65.6,157.3c1.1,2.6-.8,5.4-3.6,5.4Z"/>
      <path class="cls-1" d="M581.6,220.2h-97c-1.6,0-3,.9-3.6,2.4-52.9,126.1-116.5,277.8-169.5,404.1-1.1,2.6.8,5.4,3.6,5.4h56.7c1.6,0,3-.9,3.6-2.4,9.1-21.9,32.7-78.5,41.5-99.7.6-1.4,2-2.4,3.6-2.4h96c2.1,0,3.9,1.7,3.9,3.9v96.7c0,2.1,1.7,3.9,3.9,3.9h57.3c2.1,0,3.9-1.7,3.9-3.9V224.1c0-2.1-1.7-3.9-3.9-3.9ZM520.4,458.6c0,2.1-1.7,3.9-3.9,3.9h-65.6c-2.8,0-4.6-2.8-3.6-5.4l65.6-157.3c.6-1.4,2-2.4,3.6-2.4h0c2.1,0,3.9,1.7,3.9,3.9v157.3Z"/>
    </g>
  </g>
</svg>